<mxfile host="app.diagrams.net" modified="2021-10-17T03:52:39.060Z" agent="5.0 (Windows NT 10.0; Win64; x64) AppleWebKit/537.36 (KHTML, like Gecko) Chrome/94.0.4606.81 Safari/537.36" etag="SXYAHlA_U9EpwOiOyL-O" version="15.5.2" type="github">
  <diagram name="Page-1" id="b33cb84f-bf7a-9ccf-f142-242d16432e5d">
    <mxGraphModel dx="1465" dy="2275" grid="1" gridSize="10" guides="1" tooltips="1" connect="1" arrows="1" fold="1" page="1" pageScale="1.5" pageWidth="1169" pageHeight="826" background="none" math="0" shadow="0">
      <root>
        <mxCell id="0" style=";html=1;" />
        <mxCell id="1" style=";html=1;" parent="0" />
        <mxCell id="eZxbaBp0KACx5FJQrMLy-3" value="O" style="text;html=1;strokeColor=none;fillColor=none;align=center;verticalAlign=middle;whiteSpace=wrap;rounded=0;shadow=0;fontSize=20;" parent="1" vertex="1">
          <mxGeometry x="570" y="830" width="80" height="30" as="geometry" />
        </mxCell>
        <mxCell id="eZxbaBp0KACx5FJQrMLy-4" value="F" style="text;html=1;strokeColor=none;fillColor=none;align=center;verticalAlign=middle;whiteSpace=wrap;rounded=0;shadow=0;fontSize=20;" parent="1" vertex="1">
          <mxGeometry x="610" y="960" width="80" height="30" as="geometry" />
        </mxCell>
        <mxCell id="eZxbaBp0KACx5FJQrMLy-5" value="!F" style="text;html=1;strokeColor=none;fillColor=none;align=center;verticalAlign=middle;whiteSpace=wrap;rounded=0;shadow=0;fontSize=20;" parent="1" vertex="1">
          <mxGeometry x="760" y="910" width="80" height="30" as="geometry" />
        </mxCell>
        <mxCell id="eZxbaBp0KACx5FJQrMLy-6" value="!O" style="text;html=1;strokeColor=none;fillColor=none;align=center;verticalAlign=middle;whiteSpace=wrap;rounded=0;shadow=0;fontSize=20;" parent="1" vertex="1">
          <mxGeometry x="640" y="870" width="80" height="30" as="geometry" />
        </mxCell>
        <mxCell id="eZxbaBp0KACx5FJQrMLy-8" value="F" style="text;html=1;strokeColor=none;fillColor=none;align=center;verticalAlign=middle;whiteSpace=wrap;rounded=0;shadow=0;fontSize=20;" parent="1" vertex="1">
          <mxGeometry x="700" y="830" width="80" height="30" as="geometry" />
        </mxCell>
        <mxCell id="eZxbaBp0KACx5FJQrMLy-10" value="!N" style="text;html=1;strokeColor=none;fillColor=none;align=center;verticalAlign=middle;whiteSpace=wrap;rounded=0;shadow=0;fontSize=20;" parent="1" vertex="1">
          <mxGeometry x="780" y="830" width="80" height="30" as="geometry" />
        </mxCell>
        <mxCell id="eZxbaBp0KACx5FJQrMLy-11" value="N" style="text;html=1;strokeColor=none;fillColor=none;align=center;verticalAlign=middle;whiteSpace=wrap;rounded=0;shadow=0;fontSize=20;" parent="1" vertex="1">
          <mxGeometry x="750" y="780" width="40" height="30" as="geometry" />
        </mxCell>
        <mxCell id="eZxbaBp0KACx5FJQrMLy-30" value="" style="group" parent="1" vertex="1" connectable="0">
          <mxGeometry x="90" width="90" height="70" as="geometry" />
        </mxCell>
        <mxCell id="eZxbaBp0KACx5FJQrMLy-19" value="" style="ellipse;whiteSpace=wrap;html=1;rounded=0;shadow=0;strokeWidth=1;fillColor=none;fontSize=24;align=right" parent="eZxbaBp0KACx5FJQrMLy-30" vertex="1">
          <mxGeometry width="90.00000000000003" height="70" as="geometry" />
        </mxCell>
        <mxCell id="2a5a01dd2e413fbf-50" value="Timer" style="text;html=1;strokeColor=none;fillColor=none;align=center;verticalAlign=middle;whiteSpace=wrap;rounded=0;shadow=0;fontSize=20;" parent="eZxbaBp0KACx5FJQrMLy-30" vertex="1">
          <mxGeometry x="19.285714285714292" y="23.333333333333332" width="51.42857142857145" height="23.333333333333332" as="geometry" />
        </mxCell>
        <mxCell id="eZxbaBp0KACx5FJQrMLy-32" value="" style="group" parent="1" vertex="1" connectable="0">
          <mxGeometry x="90" y="-300" width="120" height="100" as="geometry" />
        </mxCell>
        <mxCell id="eZxbaBp0KACx5FJQrMLy-20" value="" style="ellipse;whiteSpace=wrap;html=1;rounded=0;shadow=0;strokeWidth=1;fillColor=none;fontSize=24;align=right" parent="eZxbaBp0KACx5FJQrMLy-32" vertex="1">
          <mxGeometry width="120" height="100" as="geometry" />
        </mxCell>
        <mxCell id="2a5a01dd2e413fbf-51" value="Scheduler" style="text;html=1;strokeColor=none;fillColor=none;align=center;verticalAlign=middle;whiteSpace=wrap;rounded=0;shadow=0;fontSize=20;" parent="eZxbaBp0KACx5FJQrMLy-32" vertex="1">
          <mxGeometry x="21.42857142857143" y="28.571428571428573" width="77.14285714285714" height="42.85714285714286" as="geometry" />
        </mxCell>
        <mxCell id="eZxbaBp0KACx5FJQrMLy-51" style="edgeStyle=none;curved=1;orthogonalLoop=1;jettySize=auto;html=1;exitX=0;exitY=1;exitDx=0;exitDy=0;fontSize=24;startArrow=classicThin;startFill=1;endArrow=none;endFill=0;strokeColor=#00CC00;strokeWidth=3;" parent="1" edge="1">
          <mxGeometry relative="1" as="geometry">
            <Array as="points">
              <mxPoint x="380" y="850" />
              <mxPoint x="300" y="870" />
            </Array>
            <mxPoint x="390.5025253169415" y="849.7487373415292" as="sourcePoint" />
            <mxPoint x="320" y="900" as="targetPoint" />
          </mxGeometry>
        </mxCell>
        <mxCell id="eZxbaBp0KACx5FJQrMLy-71" style="edgeStyle=none;curved=1;orthogonalLoop=1;jettySize=auto;html=1;entryX=0;entryY=0.5;entryDx=0;entryDy=0;fontSize=24;startArrow=classic;startFill=1;endArrow=none;endFill=0;strokeColor=#0066CC;strokeWidth=2;" parent="1" edge="1">
          <mxGeometry relative="1" as="geometry">
            <Array as="points">
              <mxPoint x="240" y="950" />
            </Array>
            <mxPoint x="220" y="800" as="sourcePoint" />
            <mxPoint x="340" y="955" as="targetPoint" />
          </mxGeometry>
        </mxCell>
        <mxCell id="eZxbaBp0KACx5FJQrMLy-79" value="&lt;font style=&quot;font-size: 28px&quot;&gt;Thermostat System Diagram&lt;/font&gt;" style="text;html=1;strokeColor=none;fillColor=none;align=center;verticalAlign=middle;whiteSpace=wrap;rounded=0;hachureGap=4;pointerEvents=0;fontSize=24;fontStyle=1" parent="1" vertex="1">
          <mxGeometry x="1260" y="-580" width="430" height="30" as="geometry" />
        </mxCell>
        <mxCell id="eZxbaBp0KACx5FJQrMLy-81" value="By: Katie Stapleton" style="text;html=1;strokeColor=none;fillColor=none;align=center;verticalAlign=middle;whiteSpace=wrap;rounded=0;hachureGap=4;pointerEvents=0;fontSize=18;fontStyle=2" parent="1" vertex="1">
          <mxGeometry x="1230" y="-500" width="170" height="30" as="geometry" />
        </mxCell>
        <mxCell id="e0jNq91RbBLGxGO3Wyhw-14" value="" style="group" vertex="1" connectable="0" parent="1">
          <mxGeometry x="80" y="-130" width="160" height="110" as="geometry" />
        </mxCell>
        <mxCell id="e0jNq91RbBLGxGO3Wyhw-10" value="" style="group" vertex="1" connectable="0" parent="e0jNq91RbBLGxGO3Wyhw-14">
          <mxGeometry x="20" y="40" width="130" height="70" as="geometry" />
        </mxCell>
        <mxCell id="e0jNq91RbBLGxGO3Wyhw-11" value="" style="ellipse;whiteSpace=wrap;html=1;rounded=0;shadow=0;strokeWidth=1;fillColor=none;fontSize=24;align=right" vertex="1" parent="e0jNq91RbBLGxGO3Wyhw-10">
          <mxGeometry width="90" height="70" as="geometry" />
        </mxCell>
        <mxCell id="e0jNq91RbBLGxGO3Wyhw-12" value="INIT" style="text;html=1;strokeColor=none;fillColor=none;align=center;verticalAlign=middle;whiteSpace=wrap;rounded=0;shadow=0;fontSize=20;" vertex="1" parent="e0jNq91RbBLGxGO3Wyhw-10">
          <mxGeometry x="7.858571428571427" y="20" width="74.28571428571428" height="30" as="geometry" />
        </mxCell>
        <mxCell id="e0jNq91RbBLGxGO3Wyhw-13" style="edgeStyle=none;curved=1;orthogonalLoop=1;jettySize=auto;html=1;exitX=0;exitY=0;exitDx=0;exitDy=0;fontSize=24;startArrow=classic;startFill=1;endArrow=none;endFill=0;strokeColor=#0066CC;strokeWidth=2;" edge="1" parent="e0jNq91RbBLGxGO3Wyhw-14" source="e0jNq91RbBLGxGO3Wyhw-11">
          <mxGeometry relative="1" as="geometry">
            <mxPoint as="targetPoint" />
          </mxGeometry>
        </mxCell>
        <mxCell id="e0jNq91RbBLGxGO3Wyhw-30" style="edgeStyle=none;curved=1;orthogonalLoop=1;jettySize=auto;html=1;fontSize=24;startArrow=classic;startFill=1;endArrow=none;endFill=0;strokeColor=#FF0000;strokeWidth=2;entryX=0.379;entryY=-0.011;entryDx=0;entryDy=0;entryPerimeter=0;" edge="1" parent="1">
          <mxGeometry relative="1" as="geometry">
            <mxPoint x="143.06077764190698" y="929.0069031004709" as="targetPoint" />
            <Array as="points">
              <mxPoint x="200.00077764190704" y="879.9969031004707" />
              <mxPoint x="120.00077764190704" y="879.9969031004707" />
            </Array>
            <mxPoint x="178.29" y="931.56" as="sourcePoint" />
          </mxGeometry>
        </mxCell>
        <mxCell id="e0jNq91RbBLGxGO3Wyhw-33" value="TASKÂ " style="swimlane;fontSize=28;align=center;startSize=42;fillColor=#e1d5e7;strokeColor=#9673a6;rounded=1;shadow=0;sketch=0;glass=0;swimlaneFillColor=none;perimeterSpacing=2;strokeWidth=3;" vertex="1" parent="1">
          <mxGeometry x="820" y="-440" width="720" height="530" as="geometry">
            <mxRectangle x="1000" y="-100" width="110" height="40" as="alternateBounds" />
          </mxGeometry>
        </mxCell>
        <mxCell id="e0jNq91RbBLGxGO3Wyhw-107" value="" style="group" vertex="1" connectable="0" parent="e0jNq91RbBLGxGO3Wyhw-33">
          <mxGeometry x="50" y="40" width="630" height="400" as="geometry" />
        </mxCell>
        <mxCell id="e0jNq91RbBLGxGO3Wyhw-66" value="" style="group" vertex="1" connectable="0" parent="e0jNq91RbBLGxGO3Wyhw-107">
          <mxGeometry x="-6.289999999999999" y="175" width="107" height="70" as="geometry" />
        </mxCell>
        <mxCell id="e0jNq91RbBLGxGO3Wyhw-68" value="read temp" style="text;html=1;strokeColor=none;fillColor=none;align=center;verticalAlign=middle;whiteSpace=wrap;rounded=0;shadow=0;fontSize=20;" vertex="1" parent="e0jNq91RbBLGxGO3Wyhw-66">
          <mxGeometry x="22.928571428571427" y="20" width="61.14285714285714" height="30" as="geometry" />
        </mxCell>
        <mxCell id="e0jNq91RbBLGxGO3Wyhw-85" value="" style="group" vertex="1" connectable="0" parent="e0jNq91RbBLGxGO3Wyhw-107">
          <mxGeometry x="390" width="120" height="100" as="geometry" />
        </mxCell>
        <mxCell id="e0jNq91RbBLGxGO3Wyhw-86" value="" style="ellipse;whiteSpace=wrap;html=1;rounded=0;shadow=0;strokeWidth=1;fillColor=none;fontSize=24;align=right" vertex="1" parent="e0jNq91RbBLGxGO3Wyhw-85">
          <mxGeometry x="-80" y="50" width="120" height="100" as="geometry" />
        </mxCell>
        <mxCell id="e0jNq91RbBLGxGO3Wyhw-87" value="compare temps" style="text;html=1;strokeColor=none;fillColor=none;align=center;verticalAlign=middle;whiteSpace=wrap;rounded=0;shadow=0;fontSize=20;" vertex="1" parent="e0jNq91RbBLGxGO3Wyhw-85">
          <mxGeometry x="-58.57142857142857" y="78.57142857142858" width="77.14285714285714" height="42.85714285714286" as="geometry" />
        </mxCell>
        <mxCell id="e0jNq91RbBLGxGO3Wyhw-105" value="" style="group" vertex="1" connectable="0" parent="e0jNq91RbBLGxGO3Wyhw-107">
          <mxGeometry x="300" y="221.43" width="120" height="200" as="geometry" />
        </mxCell>
        <mxCell id="e0jNq91RbBLGxGO3Wyhw-96" value="&lt;font style=&quot;font-size: 20px&quot;&gt;LED Off&lt;/font&gt;" style="ellipse;whiteSpace=wrap;html=1;rounded=1;shadow=0;glass=0;sketch=0;fontSize=24;strokeWidth=1;align=center;" vertex="1" parent="e0jNq91RbBLGxGO3Wyhw-105">
          <mxGeometry x="-40" y="-1.43" width="120" height="80" as="geometry" />
        </mxCell>
        <mxCell id="e0jNq91RbBLGxGO3Wyhw-97" value="" style="group" vertex="1" connectable="0" parent="e0jNq91RbBLGxGO3Wyhw-105">
          <mxGeometry x="6.5" y="130" width="107" height="70" as="geometry" />
        </mxCell>
        <mxCell id="e0jNq91RbBLGxGO3Wyhw-98" value="" style="ellipse;whiteSpace=wrap;html=1;rounded=0;shadow=0;strokeWidth=1;fillColor=none;fontSize=24;align=right" vertex="1" parent="e0jNq91RbBLGxGO3Wyhw-97">
          <mxGeometry width="107" height="70" as="geometry" />
        </mxCell>
        <mxCell id="e0jNq91RbBLGxGO3Wyhw-99" value="S = 0" style="text;html=1;strokeColor=none;fillColor=none;align=center;verticalAlign=middle;whiteSpace=wrap;rounded=0;shadow=0;fontSize=20;" vertex="1" parent="e0jNq91RbBLGxGO3Wyhw-97">
          <mxGeometry x="22.928571428571427" y="20" width="61.14285714285714" height="30" as="geometry" />
        </mxCell>
        <mxCell id="e0jNq91RbBLGxGO3Wyhw-106" value="" style="group" vertex="1" connectable="0" parent="e0jNq91RbBLGxGO3Wyhw-107">
          <mxGeometry x="506.5" y="221.43" width="120" height="200" as="geometry" />
        </mxCell>
        <mxCell id="e0jNq91RbBLGxGO3Wyhw-94" value="&lt;font style=&quot;font-size: 20px&quot;&gt;LED On&lt;/font&gt;" style="ellipse;whiteSpace=wrap;html=1;rounded=1;shadow=0;glass=0;sketch=0;fontSize=24;strokeWidth=1;align=center;" vertex="1" parent="e0jNq91RbBLGxGO3Wyhw-106">
          <mxGeometry width="120" height="80" as="geometry" />
        </mxCell>
        <mxCell id="e0jNq91RbBLGxGO3Wyhw-100" value="" style="group" vertex="1" connectable="0" parent="e0jNq91RbBLGxGO3Wyhw-106">
          <mxGeometry x="6.5" y="130" width="107" height="70" as="geometry" />
        </mxCell>
        <mxCell id="e0jNq91RbBLGxGO3Wyhw-101" value="" style="ellipse;whiteSpace=wrap;html=1;rounded=0;shadow=0;strokeWidth=1;fillColor=none;fontSize=24;align=right" vertex="1" parent="e0jNq91RbBLGxGO3Wyhw-100">
          <mxGeometry width="107" height="70" as="geometry" />
        </mxCell>
        <mxCell id="e0jNq91RbBLGxGO3Wyhw-102" value="S = 1" style="text;html=1;strokeColor=none;fillColor=none;align=center;verticalAlign=middle;whiteSpace=wrap;rounded=0;shadow=0;fontSize=20;" vertex="1" parent="e0jNq91RbBLGxGO3Wyhw-100">
          <mxGeometry x="22.928571428571427" y="20" width="61.14285714285714" height="30" as="geometry" />
        </mxCell>
        <mxCell id="e0jNq91RbBLGxGO3Wyhw-83" value="" style="ellipse;whiteSpace=wrap;html=1;rounded=0;shadow=0;strokeWidth=1;fillColor=none;fontSize=24;align=right" vertex="1" parent="e0jNq91RbBLGxGO3Wyhw-107">
          <mxGeometry x="80" y="300" width="110" height="80" as="geometry" />
        </mxCell>
        <mxCell id="e0jNq91RbBLGxGO3Wyhw-84" value="room temp" style="text;html=1;strokeColor=none;fillColor=none;align=center;verticalAlign=middle;whiteSpace=wrap;rounded=0;shadow=0;fontSize=20;" vertex="1" parent="e0jNq91RbBLGxGO3Wyhw-107">
          <mxGeometry x="100.71428571428572" y="322.8571428571429" width="68.57142857142857" height="34.285714285714285" as="geometry" />
        </mxCell>
        <mxCell id="e0jNq91RbBLGxGO3Wyhw-67" value="" style="ellipse;whiteSpace=wrap;html=1;rounded=0;shadow=0;strokeWidth=1;fillColor=none;fontSize=24;align=right" vertex="1" parent="e0jNq91RbBLGxGO3Wyhw-107">
          <mxGeometry x="-2.789999999999999" y="170" width="100" height="80" as="geometry" />
        </mxCell>
        <mxCell id="e0jNq91RbBLGxGO3Wyhw-2" value="Check Buttons" style="swimlane;fontSize=28;align=center;startSize=42;fillColor=#e1d5e7;strokeColor=#9673a6;rounded=1;shadow=0;sketch=0;glass=0;swimlaneFillColor=none;perimeterSpacing=2;strokeWidth=3;" vertex="1" parent="1">
          <mxGeometry x="300" y="-470" width="370" height="300" as="geometry">
            <mxRectangle x="1000" y="-100" width="110" height="40" as="alternateBounds" />
          </mxGeometry>
        </mxCell>
        <mxCell id="e0jNq91RbBLGxGO3Wyhw-39" value="" style="group" vertex="1" connectable="0" parent="e0jNq91RbBLGxGO3Wyhw-2">
          <mxGeometry x="50" y="80" width="140" height="60" as="geometry" />
        </mxCell>
        <mxCell id="e0jNq91RbBLGxGO3Wyhw-40" value="" style="ellipse;whiteSpace=wrap;html=1;rounded=0;shadow=0;strokeWidth=1;fillColor=none;fontSize=24;align=right" vertex="1" parent="e0jNq91RbBLGxGO3Wyhw-39">
          <mxGeometry width="140.00000000000003" height="60" as="geometry" />
        </mxCell>
        <mxCell id="e0jNq91RbBLGxGO3Wyhw-41" value="Button 0" style="text;html=1;strokeColor=none;fillColor=none;align=center;verticalAlign=middle;whiteSpace=wrap;rounded=0;shadow=0;fontSize=20;" vertex="1" parent="e0jNq91RbBLGxGO3Wyhw-39">
          <mxGeometry x="30.000000000000007" y="19.999999999999996" width="80.00000000000004" height="19.999999999999996" as="geometry" />
        </mxCell>
        <mxCell id="e0jNq91RbBLGxGO3Wyhw-46" value="" style="group" vertex="1" connectable="0" parent="e0jNq91RbBLGxGO3Wyhw-2">
          <mxGeometry x="50" y="210" width="140" height="60" as="geometry" />
        </mxCell>
        <mxCell id="e0jNq91RbBLGxGO3Wyhw-47" value="" style="ellipse;whiteSpace=wrap;html=1;rounded=0;shadow=0;strokeWidth=1;fillColor=none;fontSize=24;align=right" vertex="1" parent="e0jNq91RbBLGxGO3Wyhw-46">
          <mxGeometry width="140.00000000000003" height="60" as="geometry" />
        </mxCell>
        <mxCell id="e0jNq91RbBLGxGO3Wyhw-48" value="Button 1" style="text;html=1;strokeColor=none;fillColor=none;align=center;verticalAlign=middle;whiteSpace=wrap;rounded=0;shadow=0;fontSize=20;" vertex="1" parent="e0jNq91RbBLGxGO3Wyhw-46">
          <mxGeometry x="30.000000000000007" y="19.999999999999996" width="80.00000000000004" height="19.999999999999996" as="geometry" />
        </mxCell>
        <mxCell id="e0jNq91RbBLGxGO3Wyhw-112" style="edgeStyle=none;curved=1;orthogonalLoop=1;jettySize=auto;html=1;fontSize=24;startArrow=classic;startFill=1;endArrow=none;endFill=0;strokeColor=#FF0000;strokeWidth=2;entryX=0.45;entryY=-0.017;entryDx=0;entryDy=0;entryPerimeter=0;" edge="1" parent="e0jNq91RbBLGxGO3Wyhw-46" target="e0jNq91RbBLGxGO3Wyhw-47">
          <mxGeometry relative="1" as="geometry">
            <mxPoint x="83.06077764190695" y="-2.5530968995290095" as="targetPoint" />
            <Array as="points">
              <mxPoint x="140" y="-40" />
              <mxPoint x="100" y="-50" />
            </Array>
            <mxPoint x="120" y="10" as="sourcePoint" />
          </mxGeometry>
        </mxCell>
        <mxCell id="e0jNq91RbBLGxGO3Wyhw-64" value="" style="ellipse;whiteSpace=wrap;html=1;rounded=0;shadow=0;strokeWidth=1;fillColor=none;fontSize=24;align=right" vertex="1" parent="e0jNq91RbBLGxGO3Wyhw-2">
          <mxGeometry x="201.5" y="140" width="120" height="60" as="geometry" />
        </mxCell>
        <mxCell id="e0jNq91RbBLGxGO3Wyhw-65" value="set temp" style="text;html=1;strokeColor=none;fillColor=none;align=center;verticalAlign=middle;whiteSpace=wrap;rounded=0;shadow=0;fontSize=20;" vertex="1" parent="e0jNq91RbBLGxGO3Wyhw-2">
          <mxGeometry x="221.5" y="156.66666666666666" width="80.00000000000004" height="26.66666666666666" as="geometry" />
        </mxCell>
        <mxCell id="e0jNq91RbBLGxGO3Wyhw-79" style="edgeStyle=none;curved=1;orthogonalLoop=1;jettySize=auto;html=1;exitX=1;exitY=0.5;exitDx=0;exitDy=0;entryX=0.5;entryY=0;entryDx=0;entryDy=0;fontSize=24;startFill=0;endArrow=block;endFill=1;strokeColor=#00CC00;strokeWidth=3;" edge="1" parent="e0jNq91RbBLGxGO3Wyhw-2" source="e0jNq91RbBLGxGO3Wyhw-40" target="e0jNq91RbBLGxGO3Wyhw-64">
          <mxGeometry relative="1" as="geometry">
            <Array as="points">
              <mxPoint x="260" y="90" />
            </Array>
          </mxGeometry>
        </mxCell>
        <mxCell id="e0jNq91RbBLGxGO3Wyhw-80" style="edgeStyle=none;curved=1;orthogonalLoop=1;jettySize=auto;html=1;exitX=1;exitY=0.5;exitDx=0;exitDy=0;entryX=0.5;entryY=1;entryDx=0;entryDy=0;fontSize=24;startFill=0;endArrow=block;endFill=1;strokeColor=#00CC00;strokeWidth=3;" edge="1" parent="e0jNq91RbBLGxGO3Wyhw-2" source="e0jNq91RbBLGxGO3Wyhw-47" target="e0jNq91RbBLGxGO3Wyhw-64">
          <mxGeometry relative="1" as="geometry">
            <Array as="points">
              <mxPoint x="261.5" y="250" />
            </Array>
          </mxGeometry>
        </mxCell>
        <mxCell id="eZxbaBp0KACx5FJQrMLy-7" value="!B" style="text;html=1;strokeColor=none;fillColor=none;align=center;verticalAlign=middle;whiteSpace=wrap;rounded=0;shadow=0;fontSize=20;" parent="e0jNq91RbBLGxGO3Wyhw-2" vertex="1">
          <mxGeometry x="130" y="180" width="40" height="30" as="geometry" />
        </mxCell>
        <mxCell id="e0jNq91RbBLGxGO3Wyhw-116" value="!B" style="text;html=1;strokeColor=none;fillColor=none;align=center;verticalAlign=middle;whiteSpace=wrap;rounded=0;shadow=0;fontSize=20;" vertex="1" parent="e0jNq91RbBLGxGO3Wyhw-2">
          <mxGeometry x="80" y="140" width="40" height="30" as="geometry" />
        </mxCell>
        <mxCell id="e0jNq91RbBLGxGO3Wyhw-114" style="edgeStyle=none;curved=1;orthogonalLoop=1;jettySize=auto;html=1;fontSize=24;startArrow=classic;startFill=1;endArrow=none;endFill=0;strokeColor=#FF0000;strokeWidth=2;exitX=0.25;exitY=0;exitDx=0;exitDy=0;entryX=0.621;entryY=1.033;entryDx=0;entryDy=0;entryPerimeter=0;" edge="1" parent="e0jNq91RbBLGxGO3Wyhw-2" source="e0jNq91RbBLGxGO3Wyhw-116" target="e0jNq91RbBLGxGO3Wyhw-40">
          <mxGeometry relative="1" as="geometry">
            <mxPoint x="130" y="145" as="targetPoint" />
            <Array as="points">
              <mxPoint x="60" y="185" />
              <mxPoint x="100" y="195" />
            </Array>
            <mxPoint x="70" y="145" as="sourcePoint" />
          </mxGeometry>
        </mxCell>
        <mxCell id="e0jNq91RbBLGxGO3Wyhw-32" value="TASKÂ " style="swimlane;fontSize=28;align=center;startSize=42;fillColor=#e1d5e7;strokeColor=#9673a6;rounded=1;shadow=0;sketch=0;glass=0;swimlaneFillColor=none;perimeterSpacing=2;strokeWidth=3;" vertex="1" parent="1">
          <mxGeometry x="310" y="-50" width="390" height="270" as="geometry">
            <mxRectangle x="1000" y="-100" width="110" height="40" as="alternateBounds" />
          </mxGeometry>
        </mxCell>
        <mxCell id="eZxbaBp0KACx5FJQrMLy-33" value="" style="group" parent="e0jNq91RbBLGxGO3Wyhw-32" vertex="1" connectable="0">
          <mxGeometry x="197" y="105" width="143" height="120" as="geometry" />
        </mxCell>
        <mxCell id="2a5a01dd2e413fbf-10" value="" style="ellipse;whiteSpace=wrap;html=1;rounded=0;shadow=0;strokeWidth=1;fillColor=none;fontSize=24;align=right" parent="eZxbaBp0KACx5FJQrMLy-33" vertex="1">
          <mxGeometry width="143" height="120" as="geometry" />
        </mxCell>
        <mxCell id="2a5a01dd2e413fbf-52" value="Display Data" style="text;html=1;strokeColor=none;fillColor=none;align=center;verticalAlign=middle;whiteSpace=wrap;rounded=0;shadow=0;fontSize=20;" parent="eZxbaBp0KACx5FJQrMLy-33" vertex="1">
          <mxGeometry x="30.642857142857142" y="34.285714285714285" width="81.71428571428571" height="51.42857142857142" as="geometry" />
        </mxCell>
        <mxCell id="e0jNq91RbBLGxGO3Wyhw-120" style="edgeStyle=none;curved=1;orthogonalLoop=1;jettySize=auto;html=1;entryX=0;entryY=0.5;entryDx=0;entryDy=0;fontSize=24;startArrow=none;startFill=0;endArrow=block;endFill=1;strokeColor=#0066CC;strokeWidth=2;" edge="1" parent="e0jNq91RbBLGxGO3Wyhw-32" source="eZxbaBp0KACx5FJQrMLy-22" target="2a5a01dd2e413fbf-10">
          <mxGeometry relative="1" as="geometry" />
        </mxCell>
        <mxCell id="eZxbaBp0KACx5FJQrMLy-31" value="" style="group" parent="e0jNq91RbBLGxGO3Wyhw-32" vertex="1" connectable="0">
          <mxGeometry x="30" y="130" width="107" height="70" as="geometry" />
        </mxCell>
        <mxCell id="eZxbaBp0KACx5FJQrMLy-22" value="" style="ellipse;whiteSpace=wrap;html=1;rounded=0;shadow=0;strokeWidth=1;fillColor=none;fontSize=24;align=right" parent="eZxbaBp0KACx5FJQrMLy-31" vertex="1">
          <mxGeometry width="107" height="70" as="geometry" />
        </mxCell>
        <mxCell id="2a5a01dd2e413fbf-55" value="Read Timer" style="text;html=1;strokeColor=none;fillColor=none;align=center;verticalAlign=middle;whiteSpace=wrap;rounded=0;shadow=0;fontSize=20;" parent="eZxbaBp0KACx5FJQrMLy-31" vertex="1">
          <mxGeometry x="22.928571428571427" y="20" width="61.14285714285714" height="30" as="geometry" />
        </mxCell>
      </root>
    </mxGraphModel>
  </diagram>
</mxfile>
